<svg width="30" height="30" viewBox="0 0 30 30" fill="none" xmlns="http://www.w3.org/2000/svg">
<path d="M13.4512 0C14.5957 0 15.5234 0.965046 15.5234 2.15527V3.61523C15.5234 8.36885 21.2102 8.09334 24.6641 4.82715L24.8008 4.69824L24.7988 4.70117C27.6709 4.70143 29.9998 7.12256 30 10.1104V24.5908C30 27.5777 27.672 29.9997 24.7988 30H20.9453L21.1084 29.9424C21.4901 29.8267 21.9267 29.7106 22.2539 29.5371L23.7812 28.958L22.1992 28.5537L21.6543 28.3799L21.4365 28.293C21.3682 28.264 21.2997 28.235 21.2178 28.2061C19.3087 27.4539 17.3449 27.3387 15.5449 27.8594C15.1632 27.9751 14.7811 28.0901 14.3994 28.2637L13.0908 28.9004L12.7637 29.0742L13.8545 29.4795C14.1816 29.5952 14.5088 29.7105 14.8359 29.8262L15 29.8838L15.1631 29.8262C15.3267 29.7683 15.4907 29.6523 15.6543 29.6523C15.7633 29.6523 15.8724 29.5949 15.9814 29.5371C17.2905 29.19 18.7091 29.1902 20.2363 29.7109C20.3998 29.7688 20.5093 29.826 20.6729 29.8838L20.9453 30H10.874C8.00171 29.9999 5.6729 27.5788 5.67285 24.5908V18.918C5.67265 18.3201 5.20678 17.8362 4.63184 17.8359H2.07227C0.927726 17.8359 0 16.8709 0 15.6807V9.91309C0.000131804 8.72297 0.927807 7.75879 2.07227 7.75879H4.60938C5.28602 7.75875 5.83398 7.18804 5.83398 6.48438V2.15527C5.83398 0.965084 6.76176 6.1893e-05 7.90625 0H13.4512ZM27.3271 23.5771C24.7635 25.0815 22.4177 25.3711 20.0723 24.4453C18.1633 23.6932 16.1993 23.5779 14.3994 24.0986C13.145 24.4458 11.9453 25.14 10.8545 26.0078L10.0908 26.7021L9.87207 26.9336L10.3633 27.3965C10.4178 27.3965 10.4182 27.4539 10.4727 27.5117C10.5817 27.6274 10.6909 27.686 10.8545 27.8018L11.1816 28.0332L11.5088 27.7432C11.5633 27.6853 11.6723 27.5696 11.7812 27.5117C12.7631 26.6438 13.8545 26.0657 15 25.7764C16.4726 25.3714 18.0541 25.4292 19.6357 26.0654C20.9448 26.5861 23.6179 27.2227 26.8359 25.7764L26.9453 25.7188L27.1094 25.5449C27.1094 25.4871 27.1632 25.4866 27.2178 25.4287C27.4904 25.0817 27.7633 24.7349 27.9814 24.3301L29.0723 22.5361L27.3271 23.5771ZM29.1816 17.2705C29.0725 17.3862 28.9636 17.5024 28.8545 17.6182C26.6181 19.8747 23.0178 22.3046 18.9814 20.6846C17.0726 19.9326 15.1094 19.8173 13.3096 20.3379C11.6187 20.8586 10.0912 21.7842 8.72754 23.1729L8.01855 23.9824L7.7998 24.2715L8.01855 24.6191C8.18212 24.8505 8.29133 25.0245 8.40039 25.2559L8.72754 25.7764L9.10938 25.2559C9.16384 25.1981 9.27253 25.0824 9.32715 25.0244C10.6362 23.5201 12.055 22.5937 13.6914 22.1309C15.164 21.726 16.7455 21.7845 18.3271 22.4209C19.6908 22.9416 21.1092 23.115 22.5273 22.9414C25.0364 22.6521 27.5458 21.1476 29.4004 19.4697C29.5094 19.3541 29.6185 19.2963 29.7275 19.1807L29.8906 19.0068V18.833C29.8906 18.4859 29.9453 18.0805 29.9453 17.7334L30 16.4033L29.1816 17.2705Z" fill="#0074BA"/>
</svg>
