<svg width="53" height="53" viewBox="0 0 53 53" fill="none" xmlns="http://www.w3.org/2000/svg">
<path d="M0 26.5C0 11.8645 11.8645 0 26.5 0C41.1355 0 53 11.8645 53 26.5V48.1818C53 50.8428 50.8428 53 48.1818 53H4.81818C2.15717 53 0 50.8428 0 48.1818V26.5Z" fill="#5D87FF"/>
<path d="M39.2384 31.7486C37.3897 32.6388 35.971 34.0014 35.1305 35.6762C34.5332 36.8327 34.2277 38.185 34.1237 39.5751L34.1146 40.6072L34.1362 40.9245L34.8094 40.8786C34.8464 40.8386 34.8889 40.8779 34.9684 40.8772C35.1274 40.8757 35.244 40.8349 35.4401 40.7934L35.8322 40.7105L35.8422 40.2738C35.8368 40.1944 35.8259 40.0358 35.8576 39.9164C35.8875 38.6063 36.2038 37.4127 36.7695 36.3755C37.4726 35.0195 38.5895 33.8979 40.131 33.1693C41.4024 32.5622 43.6849 31.0329 44.8092 27.6885L44.8408 27.5691L44.8246 27.3312C44.7821 27.2919 44.8192 27.2518 44.8137 27.1725C44.7442 26.7365 44.6747 26.3006 44.5256 25.8653L43.9502 23.8464L43.529 25.8348C42.8917 28.7381 41.511 30.656 39.2384 31.7486Z" fill="#FFAE1F"/>
<path d="M43.2001 33.2602L43.3808 33.5761L43.2001 33.2602C43.0465 33.341 42.9299 33.3818 42.7763 33.4626C40.9276 34.3528 39.5089 35.7154 38.6684 37.3901C38.494 37.749 38.3196 38.1078 38.1877 38.5059L37.7656 39.899L37.6707 40.2571L38.7089 39.7315C39.0162 39.5699 39.3234 39.4083 39.6306 39.2467L39.7842 39.1659L39.8529 39.0065C39.9216 38.8471 39.9478 38.6484 40.0589 38.5283C40.133 38.4483 40.1647 38.3289 40.1963 38.2096C40.8307 37.013 41.794 35.9722 43.2135 35.2049C43.3671 35.1242 43.4837 35.0834 43.6373 35.0026L43.9075 34.881L43.9762 34.7216C44.1506 34.3628 44.362 33.9639 44.4569 33.6059L45.0697 32.092L43.698 32.9778C43.5444 33.0586 43.3537 33.1794 43.2001 33.2602Z" fill="#FFAE1F"/>
<path d="M40.0789 19L40.1602 20.19C40.171 20.3486 40.1818 20.5073 40.1927 20.666C40.3298 23.84 39.668 28.1327 35.7374 29.9947C33.8886 30.8849 32.47 32.2475 31.6295 33.9222C30.8632 35.5169 30.5052 37.2666 30.5982 39.2106L30.711 40.2812L30.7751 40.6379L31.1781 40.7135C31.4591 40.7506 31.6606 40.7885 31.9046 40.8656L32.509 40.9791L32.3862 40.3452C32.3808 40.2659 32.37 40.1072 32.3645 40.0279C32.1496 38.0453 32.4335 36.3757 33.2052 34.8603C33.9083 33.5043 35.0252 32.3827 36.5667 31.6541C37.8751 31.0069 38.9658 30.084 39.8017 28.9253C41.2936 26.8873 41.8938 24.024 41.922 21.5232C41.9112 21.3646 41.9428 21.2452 41.932 21.0865L41.9157 20.8485L41.7883 20.7306C41.5336 20.4948 41.2734 20.1797 41.0186 19.9439L40.0789 19Z" fill="#FFAE1F"/>
<path d="M10 19.5C10 15.9101 12.9101 13 16.5 13C20.0899 13 23 15.9101 23 19.5C23 23.0899 20.0899 26 16.5 26C12.9101 26 10 23.0899 10 19.5Z" fill="#FA896B"/>
<path d="M27 14L39.9904 22.25H14.0096L27 14Z" fill="white"/>
<rect x="25" y="18" width="4" height="31" fill="white"/>
<path d="M34.9742 23.0322L39.9974 23.0322L27.6508 35.5259L28.5034 30.7217L34.9742 23.0322Z" fill="white"/>
<path d="M28.1303 29.9048L28.1031 25.7831L39.8032 34.7733L34.7319 34.7472L28.1303 29.9048Z" fill="white"/>
<rect x="13.9937" y="35" width="2.76923" height="11.8165" transform="rotate(-90 13.9937 35)" fill="white"/>
<rect x="13.9937" y="25.7692" width="2.76923" height="11.8165" transform="rotate(-90 13.9937 25.7692)" fill="white"/>
<path d="M15.9393 34.2899L13.9936 32.1597L26.1269 28.6094L26.1269 29.9729L15.9393 34.2899Z" fill="white"/>
<path d="M15.9393 23.8765L13.9936 25.7693L26.1269 29.557L26.1269 28.1935L15.9393 23.8765Z" fill="white"/>
<path d="M0 40H4C9.52285 40 14 44.4772 14 50V53H5C2.23858 53 0 50.7614 0 48V40Z" fill="#13DEB9"/>
<path d="M0 40H4C9.52285 40 14 44.4772 14 50V53H5C2.23858 53 0 50.7614 0 48V40Z" fill="#13DEB9"/>
<path d="M0 49H53C53 51.2091 51.2091 53 49 53H4C1.79086 53 0 51.2091 0 49Z" fill="#13DEB9"/>
<path d="M53 40H49C43.4772 40 39 44.4772 39 50V53H48C50.7614 53 53 50.7614 53 48V40Z" fill="#13DEB9"/>
</svg>
