<svg width="160" height="53" viewBox="0 0 160 53" fill="none" xmlns="http://www.w3.org/2000/svg">
<path d="M77.112 39.288C75.992 39.288 74.952 39.08 73.992 38.664C73.032 38.232 72.216 37.648 71.544 36.912C70.872 36.176 70.376 35.328 70.056 34.368L72.456 33.36C72.888 34.464 73.52 35.312 74.352 35.904C75.184 36.496 76.144 36.792 77.232 36.792C77.872 36.792 78.432 36.696 78.912 36.504C79.392 36.296 79.76 36.008 80.016 35.64C80.288 35.272 80.424 34.848 80.424 34.368C80.424 33.712 80.24 33.192 79.872 32.808C79.504 32.424 78.96 32.12 78.24 31.896L74.88 30.84C73.536 30.424 72.512 29.792 71.808 28.944C71.104 28.08 70.752 27.072 70.752 25.92C70.752 24.912 71 24.032 71.496 23.28C71.992 22.512 72.672 21.912 73.536 21.48C74.416 21.048 75.416 20.832 76.536 20.832C77.608 20.832 78.584 21.024 79.464 21.408C80.344 21.776 81.096 22.288 81.72 22.944C82.36 23.6 82.824 24.36 83.112 25.224L80.76 26.256C80.408 25.312 79.856 24.584 79.104 24.072C78.368 23.56 77.512 23.304 76.536 23.304C75.944 23.304 75.424 23.408 74.976 23.616C74.528 23.808 74.176 24.096 73.92 24.48C73.68 24.848 73.56 25.28 73.56 25.776C73.56 26.352 73.744 26.864 74.112 27.312C74.48 27.76 75.04 28.096 75.792 28.32L78.912 29.304C80.336 29.736 81.408 30.36 82.128 31.176C82.848 31.976 83.208 32.976 83.208 34.176C83.208 35.168 82.944 36.048 82.416 36.816C81.904 37.584 81.192 38.192 80.28 38.64C79.368 39.072 78.312 39.288 77.112 39.288ZM91.2591 39.288C89.9631 39.288 88.8111 38.992 87.8031 38.4C86.8111 37.792 86.0351 36.976 85.4751 35.952C84.9151 34.912 84.6351 33.752 84.6351 32.472C84.6351 31.16 84.9151 30 85.4751 28.992C86.0511 27.984 86.8191 27.192 87.7791 26.616C88.7391 26.024 89.8271 25.728 91.0431 25.728C92.0191 25.728 92.8911 25.896 93.6591 26.232C94.4271 26.568 95.0751 27.032 95.6031 27.624C96.1311 28.2 96.5311 28.864 96.8031 29.616C97.0911 30.368 97.2351 31.168 97.2351 32.016C97.2351 32.224 97.2271 32.44 97.2111 32.664C97.1951 32.888 97.1631 33.096 97.1151 33.288H86.7711V31.128H95.5791L94.2831 32.112C94.4431 31.328 94.3871 30.632 94.1151 30.024C93.8591 29.4 93.4591 28.912 92.9151 28.56C92.3871 28.192 91.7631 28.008 91.0431 28.008C90.3231 28.008 89.6831 28.192 89.1231 28.56C88.5631 28.912 88.1311 29.424 87.8271 30.096C87.5231 30.752 87.4031 31.552 87.4671 32.496C87.3871 33.376 87.5071 34.144 87.8271 34.8C88.1631 35.456 88.6271 35.968 89.2191 36.336C89.8271 36.704 90.5151 36.888 91.2831 36.888C92.0671 36.888 92.7311 36.712 93.2751 36.36C93.8351 36.008 94.2751 35.552 94.5951 34.992L96.8031 36.072C96.5471 36.68 96.1471 37.232 95.6031 37.728C95.0751 38.208 94.4351 38.592 93.6831 38.88C92.9471 39.152 92.1391 39.288 91.2591 39.288ZM98.9218 39V26.016H101.514V28.632L101.274 28.248C101.562 27.4 102.026 26.792 102.666 26.424C103.306 26.04 104.074 25.848 104.97 25.848H105.762V28.32H104.634C103.738 28.32 103.01 28.6 102.45 29.16C101.906 29.704 101.634 30.488 101.634 31.512V39H98.9218ZM112.753 39.288C111.457 39.288 110.305 38.992 109.297 38.4C108.305 37.792 107.529 36.976 106.969 35.952C106.409 34.912 106.129 33.752 106.129 32.472C106.129 31.16 106.409 30 106.969 28.992C107.545 27.984 108.313 27.192 109.273 26.616C110.233 26.024 111.321 25.728 112.537 25.728C113.513 25.728 114.385 25.896 115.153 26.232C115.921 26.568 116.569 27.032 117.097 27.624C117.625 28.2 118.025 28.864 118.297 29.616C118.585 30.368 118.729 31.168 118.729 32.016C118.729 32.224 118.721 32.44 118.705 32.664C118.689 32.888 118.657 33.096 118.609 33.288H108.265V31.128H117.073L115.777 32.112C115.937 31.328 115.881 30.632 115.609 30.024C115.353 29.4 114.953 28.912 114.409 28.56C113.881 28.192 113.257 28.008 112.537 28.008C111.817 28.008 111.177 28.192 110.617 28.56C110.057 28.912 109.625 29.424 109.321 30.096C109.017 30.752 108.897 31.552 108.961 32.496C108.881 33.376 109.001 34.144 109.321 34.8C109.657 35.456 110.121 35.968 110.713 36.336C111.321 36.704 112.009 36.888 112.777 36.888C113.561 36.888 114.225 36.712 114.769 36.36C115.329 36.008 115.769 35.552 116.089 34.992L118.297 36.072C118.041 36.68 117.641 37.232 117.097 37.728C116.569 38.208 115.929 38.592 115.177 38.88C114.441 39.152 113.633 39.288 112.753 39.288ZM120.416 39V26.016H123.008V28.56L122.696 28.224C123.016 27.408 123.528 26.792 124.232 26.376C124.936 25.944 125.752 25.728 126.68 25.728C127.64 25.728 128.488 25.936 129.224 26.352C129.96 26.768 130.536 27.344 130.952 28.08C131.368 28.816 131.576 29.664 131.576 30.624V39H128.888V31.344C128.888 30.688 128.768 30.136 128.528 29.688C128.288 29.224 127.944 28.872 127.496 28.632C127.064 28.376 126.568 28.248 126.008 28.248C125.448 28.248 124.944 28.376 124.496 28.632C124.064 28.872 123.728 29.224 123.488 29.688C123.248 30.152 123.128 30.704 123.128 31.344V39H120.416ZM133.518 39V26.016H136.23V39H133.518ZM133.518 24.24V21.12H136.23V24.24H133.518ZM144.057 39.144C142.697 39.144 141.641 38.76 140.889 37.992C140.137 37.224 139.761 36.144 139.761 34.752V28.464H137.481V26.016H137.841C138.449 26.016 138.921 25.84 139.257 25.488C139.593 25.136 139.761 24.656 139.761 24.048V23.04H142.473V26.016H145.425V28.464H142.473V34.632C142.473 35.08 142.545 35.464 142.689 35.784C142.833 36.088 143.065 36.328 143.385 36.504C143.705 36.664 144.121 36.744 144.633 36.744C144.761 36.744 144.905 36.736 145.065 36.72C145.225 36.704 145.377 36.688 145.521 36.672V39C145.297 39.032 145.049 39.064 144.777 39.096C144.505 39.128 144.265 39.144 144.057 39.144ZM148.36 44.28C148.04 44.28 147.72 44.248 147.4 44.184C147.096 44.136 146.816 44.056 146.56 43.944V41.616C146.752 41.664 146.984 41.704 147.256 41.736C147.528 41.784 147.792 41.808 148.048 41.808C148.8 41.808 149.352 41.64 149.704 41.304C150.072 40.984 150.4 40.488 150.688 39.816L151.552 37.848L151.504 40.128L145.888 26.016H148.792L152.944 36.84H151.96L156.088 26.016H159.016L153.28 40.416C152.976 41.184 152.592 41.856 152.128 42.432C151.68 43.024 151.144 43.48 150.52 43.8C149.912 44.12 149.192 44.28 148.36 44.28Z" fill="black"/>
<path d="M0 26.5C0 11.8645 11.8645 0 26.5 0V0C41.1355 0 53 11.8645 53 26.5V48.1818C53 50.8428 50.8428 53 48.1818 53H4.81818C2.15717 53 0 50.8428 0 48.1818V26.5Z" fill="#5D87FF"/>
<path d="M39.2384 31.7486C37.3897 32.6388 35.971 34.0014 35.1305 35.6762C34.5332 36.8327 34.2277 38.185 34.1237 39.5751L34.1146 40.6072L34.1362 40.9245L34.8094 40.8786C34.8464 40.8386 34.8889 40.8779 34.9684 40.8772C35.1274 40.8757 35.244 40.8349 35.4401 40.7934L35.8322 40.7105L35.8422 40.2738C35.8368 40.1944 35.8259 40.0358 35.8576 39.9164C35.8875 38.6063 36.2038 37.4127 36.7695 36.3755C37.4726 35.0195 38.5895 33.8979 40.131 33.1693C41.4024 32.5622 43.6849 31.0329 44.8092 27.6885L44.8408 27.5691L44.8246 27.3312C44.7821 27.2919 44.8192 27.2518 44.8137 27.1725C44.7442 26.7365 44.6747 26.3006 44.5256 25.8653L43.9502 23.8464L43.529 25.8348C42.8917 28.7381 41.511 30.656 39.2384 31.7486Z" fill="#FFAE1F"/>
<path d="M43.2001 33.2602L43.3808 33.5761L43.2001 33.2602C43.0465 33.341 42.9299 33.3818 42.7763 33.4626C40.9276 34.3528 39.5089 35.7154 38.6684 37.3901C38.494 37.749 38.3196 38.1078 38.1877 38.5059L37.7656 39.899L37.6707 40.2571L38.7089 39.7315C39.0162 39.5699 39.3234 39.4083 39.6306 39.2467L39.7842 39.1659L39.8529 39.0065C39.9216 38.8471 39.9478 38.6484 40.0589 38.5283C40.133 38.4483 40.1647 38.3289 40.1963 38.2096C40.8307 37.013 41.794 35.9722 43.2135 35.2049C43.3671 35.1242 43.4837 35.0834 43.6373 35.0026L43.9075 34.881L43.9762 34.7216C44.1506 34.3628 44.362 33.9639 44.4569 33.6059L45.0697 32.092L43.698 32.9778C43.5444 33.0586 43.3537 33.1794 43.2001 33.2602Z" fill="#FFAE1F"/>
<path d="M40.0789 19L40.1602 20.19C40.171 20.3486 40.1818 20.5073 40.1927 20.6659C40.3298 23.84 39.668 28.1327 35.7374 29.9947C33.8886 30.8849 32.47 32.2475 31.6295 33.9222C30.8632 35.5169 30.5052 37.2666 30.5982 39.2106L30.711 40.2812L30.7751 40.6379L31.1781 40.7135C31.4591 40.7506 31.6606 40.7885 31.9046 40.8656L32.509 40.9791L32.3862 40.3452C32.3808 40.2659 32.37 40.1072 32.3645 40.0279C32.1496 38.0453 32.4335 36.3757 33.2052 34.8603C33.9083 33.5043 35.0252 32.3827 36.5667 31.6541C37.8751 31.0069 38.9658 30.084 39.8017 28.9253C41.2936 26.8873 41.8938 24.024 41.922 21.5232C41.9112 21.3646 41.9428 21.2452 41.932 21.0865L41.9157 20.8485L41.7883 20.7306C41.5336 20.4948 41.2734 20.1797 41.0186 19.9439L40.0789 19Z" fill="#FFAE1F"/>
<path d="M10 19.5C10 15.9101 12.9101 13 16.5 13V13C20.0899 13 23 15.9101 23 19.5V19.5C23 23.0899 20.0899 26 16.5 26V26C12.9101 26 10 23.0899 10 19.5V19.5Z" fill="#FA896B"/>
<path d="M27 14L39.9904 22.25H14.0096L27 14Z" fill="white"/>
<rect x="25" y="18" width="4" height="31" fill="white"/>
<path d="M34.9742 23.0322L39.9974 23.0322L27.6508 35.5259L28.5034 30.7217L34.9742 23.0322Z" fill="white"/>
<path d="M28.1303 29.9048L28.1031 25.7831L39.8032 34.7733L34.7319 34.7472L28.1303 29.9048Z" fill="white"/>
<rect x="13.9937" y="35" width="2.76923" height="11.8165" transform="rotate(-90 13.9937 35)" fill="white"/>
<rect x="13.9937" y="25.7692" width="2.76923" height="11.8165" transform="rotate(-90 13.9937 25.7692)" fill="white"/>
<path d="M15.9393 34.2899L13.9936 32.1597L26.1269 28.6094L26.1269 29.9729L15.9393 34.2899Z" fill="white"/>
<path d="M15.9393 23.8765L13.9936 25.7693L26.1269 29.557L26.1269 28.1935L15.9393 23.8765Z" fill="white"/>
<path d="M0 40H4C9.52285 40 14 44.4772 14 50V53H5C2.23858 53 0 50.7614 0 48V40Z" fill="#13DEB9"/>
<path d="M0 40H4C9.52285 40 14 44.4772 14 50V53H5C2.23858 53 0 50.7614 0 48V40Z" fill="#13DEB9"/>
<path d="M0 49H53V49C53 51.2091 51.2091 53 49 53H4C1.79086 53 0 51.2091 0 49V49Z" fill="#13DEB9"/>
<path d="M53 40H49C43.4772 40 39 44.4772 39 50V53H48C50.7614 53 53 50.7614 53 48V40Z" fill="#13DEB9"/>
</svg>
