<svg width="115" height="120" viewBox="0 0 115 120" fill="none" xmlns="http://www.w3.org/2000/svg">
<path d="M0 2.5C0 1.11929 1.11929 0 2.5 0H112.5C113.881 0 115 1.11929 115 2.5V110C115 115.523 110.523 120 105 120H10C4.47715 120 0 115.523 0 110V2.5Z" fill="#D9D9D9"/>
<path d="M98 0H112.5C113.881 0 115 1.11929 115 2.5V111.5C115 116.194 111.194 120 106.5 120C101.806 120 98 116.194 98 111.5V0Z" fill="#BEBCBC"/>
<path d="M6 21V15H58V21H6Z" fill="#BEBCBC"/>
<path d="M61 47V15H93V47H61Z" fill="#0074BA"/>
<path d="M6 34V28H58V34H6Z" fill="#BEBCBC"/>
<path d="M6 47V41H58V47H6Z" fill="#BEBCBC"/>
<path d="M6 60V54H93V60H6Z" fill="#BEBCBC"/>
<path d="M6 73V67H93V73H6Z" fill="#BEBCBC"/>
<path d="M6 86V80H93V86H6Z" fill="#BEBCBC"/>
<path d="M6 99V93H93V99H6Z" fill="#BEBCBC"/>
</svg>
