<svg width="96" height="119" viewBox="0 0 96 119" fill="none" xmlns="http://www.w3.org/2000/svg">
<path d="M0 0H91C93.7614 0 96 2.23858 96 5V114C96 116.761 93.7614 119 91 119H5C2.23857 119 0 116.761 0 114V0Z" fill="#BEBCBC"/>
<rect width="89" height="118" rx="5" fill="#0074BA"/>
<rect x="8.8999" y="17.936" width="70.31" height="37.76" rx="2.5" fill="white"/>
<rect x="26.53" y="28.9321" width="12.8" height="18.6" rx="2.5" stroke="#0074BA" stroke-width="5"/>
<rect x="59.6299" y="42.48" width="4.45" height="4.72" rx="2.225" fill="#0074BA"/>
<rect width="4.5406" height="23.1645" rx="2.2703" transform="matrix(0.802807 0.596239 -0.550931 0.834551 60.8223 25.488)" fill="#0074BA"/>
<rect x="48.95" y="26.4321" width="4.45" height="4.72" rx="2.225" fill="#0074BA"/>
<rect x="8.8999" y="77.408" width="17.8" height="9.44" rx="4.72" fill="white"/>
<rect x="28.48" y="77.408" width="17.8" height="9.44" rx="4.72" fill="white"/>
<rect x="48.0601" y="77.408" width="17.8" height="9.44" rx="4.72" fill="white"/>
<rect x="67.6401" y="77.408" width="11.57" height="9.44" rx="4.72" fill="white"/>
<rect x="8.8999" y="91.5681" width="17.8" height="9.44" rx="4.72" fill="white"/>
<rect x="28.48" y="91.5681" width="17.8" height="9.44" rx="4.72" fill="white"/>
<rect x="48.0601" y="91.5681" width="31.15" height="9.44" rx="4.72" fill="white"/>
<path d="M0 114C0 116.761 2.23858 119 5 119H84C86.7614 119 89 116.761 89 114V113H0V114Z" fill="#D9D9D9"/>
</svg>
