<svg width="135" height="127" viewBox="0 0 135 127" fill="none" xmlns="http://www.w3.org/2000/svg">
<path d="M17.5222 5C17.5222 2.23858 19.7608 0 22.5222 0H110.487C113.248 0 115.487 2.23858 115.487 5V13.8231H17.5222V5Z" fill="#0074BA"/>
<path d="M17.5222 10C17.5222 4.47716 21.9994 0 27.5222 0H105.487C111.01 0 115.487 4.47715 115.487 10V13.8231H17.5222V10Z" fill="#0074BA"/>
<path d="M6.1865 21.0053C6.76493 18.8092 8.75065 17.2788 11.0216 17.2788H123.055C125.197 17.2788 127.1 18.6429 127.789 20.6708L135 41.9013L0.796387 41.4693L6.1865 21.0053Z" fill="#0074BA"/>
<path d="M27.7442 40.9996C27.7442 50.3116 21.3692 58.7481 14.17 58.7481C6.97089 58.7481 0.554089 50.3116 0.554089 40.9996C-2.5923 40.9995 8.37044 40.9998 15.5696 40.9998C28.2011 40.1123 28.1938 40.9994 27.7442 40.9996Z" fill="#0074BA"/>
<path d="M55.0768 41.2879C55.0768 50.5999 48.7017 59.0364 41.5025 59.0364C34.3034 59.0364 27.8866 50.5999 27.8866 41.2879C24.7402 41.2878 35.703 41.2881 42.9021 41.2881C55.5337 40.4006 55.5263 41.2878 55.0768 41.2879Z" fill="#0074BA"/>
<path d="M81.36 40.443C81.36 50.1984 74.9849 59.0366 67.7858 59.0366C60.5866 59.0366 54.1698 50.1984 54.1698 40.443C51.0234 40.4428 61.9862 40.4431 69.1853 40.4431C81.8169 39.5134 81.8095 40.4428 81.36 40.443Z" fill="#0074BA"/>
<path d="M108.44 40.4242C108.44 49.7362 102.064 58.1726 94.8653 58.1726C87.6662 58.1726 81.2494 49.7362 81.2494 40.4242C78.103 40.424 89.0658 40.4243 96.2649 40.4243C108.896 39.5368 108.889 40.424 108.44 40.4242Z" fill="#0074BA"/>
<path d="M134.723 39.5789C134.723 49.3344 128.348 58.1726 121.149 58.1726C113.949 58.1726 107.533 49.3344 107.533 39.5789C104.386 39.5788 115.349 39.5791 122.548 39.5791C135.18 38.6493 135.172 39.5788 134.723 39.5789Z" fill="#0074BA"/>
<path d="M18 118C18 106.954 26.9543 98 38 98H95C106.046 98 115 106.954 115 118V127H18V118Z" fill="#0074BA"/>
<rect x="17.5222" y="62.2041" width="7.9646" height="64.7959" fill="#0074BA"/>
<rect x="107.522" y="62.2041" width="7.9646" height="64.7959" fill="#0074BA"/>
</svg>
