<svg width="128" height="111" viewBox="0 0 128 111" fill="none" xmlns="http://www.w3.org/2000/svg">
<mask id="path-1-inside-1_257_137" fill="white">
<path d="M24.6858 5C24.6858 2.23857 26.9244 0 29.6858 0H90.0858C92.8472 0 95.0858 2.23858 95.0858 5V25.3983H24.6858V5Z"/>
</mask>
<path d="M24.6858 5C24.6858 2.23857 26.9244 0 29.6858 0H90.0858C92.8472 0 95.0858 2.23858 95.0858 5V25.3983H24.6858V5Z" fill="#0074BA"/>
<path d="M24.6858 5C24.6858 1.13401 27.8198 -2 31.6858 -2H90.0858C93.9518 -2 97.0858 1.13401 97.0858 5H93.0858C93.0858 3.34315 91.7426 2 90.0858 2H29.6858C26.9244 2 24.6858 3.34315 24.6858 5ZM97.0858 38.3983H24.6858V12.3983H93.0858L97.0858 38.3983ZM24.6858 25.3983V0V25.3983ZM90.0858 -2C93.9518 -2 97.0858 1.13401 97.0858 5V38.3983L93.0858 12.3983V5C93.0858 3.34315 91.7426 2 90.0858 2V-2Z" fill="#BEBCBC" mask="url(#path-1-inside-1_257_137)"/>
<path d="M99.6572 15.3474C99.6572 12.586 101.896 10.3474 104.657 10.3474H112.029C114.79 10.3474 117.029 12.586 117.029 15.3474V23.5169H99.6572V15.3474Z" fill="#BEBCBC"/>
<mask id="path-4-inside-2_257_137" fill="white">
<path d="M0 16.9321H128V111H0V16.9321Z"/>
</mask>
<path d="M0 16.9321H128V111H0V16.9321Z" fill="#0074BA"/>
<path d="M128 111V114H131V111H128ZM128 16.9321H125V111H128H131V16.9321H128ZM128 111V108H0V111V114H128V111Z" fill="#BEBCBC" mask="url(#path-4-inside-2_257_137)"/>
<ellipse cx="64" cy="64.9069" rx="32" ry="32.9237" fill="white"/>
<ellipse cx="64.4572" cy="64.4365" rx="20.5714" ry="21.1653" fill="#0074BA"/>
<ellipse cx="2.28572" cy="2.35169" rx="2.28572" ry="2.35169" transform="matrix(0.999955 -0.00950355 0.0089778 0.99996 104.229 32.967)" fill="white"/>
<ellipse cx="2.28572" cy="2.35169" rx="2.28572" ry="2.35169" transform="matrix(0.999955 -0.00950355 0.0089778 0.99996 16.457 98.8147)" fill="white"/>
<ellipse cx="2.28572" cy="2.35169" rx="2.28572" ry="2.35169" transform="matrix(0.999955 -0.00950355 0.0089778 0.99996 10.0571 98.8147)" fill="white"/>
</svg>
