<svg width="184" height="139" viewBox="0 0 184 139" fill="none" xmlns="http://www.w3.org/2000/svg">
<path d="M20.4186 78.27C18.5146 73.0858 21.1739 67.3396 26.3582 65.4357L54.5191 55.0935L70.0324 97.3349L41.8715 107.677C36.6872 109.581 30.941 106.922 29.0371 101.737L20.4186 78.27Z" fill="#D9D9D9"/>
<path d="M12.7554 86.411C11.8035 83.8189 13.1331 80.9458 15.7252 79.9938L20.4187 78.2701L29.0372 101.738L24.3437 103.461C21.7516 104.413 18.8785 103.084 17.9265 100.491L12.7554 86.411Z" fill="#0074BA"/>
<path d="M44.6877 106.643L56.8908 102.161L63.7856 120.935C64.7376 123.528 63.408 126.401 60.8158 127.353L57.9997 128.387C55.4076 129.339 52.5345 128.009 51.5825 125.417L44.6877 106.643Z" fill="#0074BA"/>
<path d="M54.5193 55.0936L105.919 18.1066L133.498 93.2025L70.0326 97.335L54.5193 55.0936Z" fill="#0074BA"/>
<rect x="104.196" y="13.4131" width="7" height="90" rx="3.5" transform="rotate(-20.1659 104.196 13.4131)" fill="#D9D9D9"/>
<rect x="152.879" y="2.22168" width="7" height="35" rx="3.5" transform="rotate(45.3806 152.879 2.22168)" fill="#0074BA"/>
<rect x="170.353" y="31.5342" width="7" height="35" rx="3.5" transform="rotate(70.3806 170.353 31.5342)" fill="#0074BA"/>
<rect x="178.545" y="64.8516" width="7" height="35" rx="3.5" transform="rotate(95.3806 178.545 64.8516)" fill="#0074BA"/>
</svg>
