<svg width="87" height="95" viewBox="0 0 87 95" fill="none" xmlns="http://www.w3.org/2000/svg">
<path d="M6.85352 28.9346C9.67192 30.9162 13.1625 32.0889 16.9424 32.0889C20.5039 32.0888 23.8076 31.0465 26.5352 29.2686C26.7269 29.3493 26.9127 29.4373 27.0938 29.5332C28.8623 30.4706 30.3097 31.917 31.2471 33.6855C32.4113 35.8823 32.4111 38.7799 32.4111 44.5742V72.2773L16.2051 81.9863L0 72.2773V44.5742C0 38.7799 -0.000188553 35.8823 1.16406 33.6855C2.10136 31.9171 3.54806 30.4706 5.31641 29.5332C5.78871 29.2829 6.29463 29.0888 6.85352 28.9346ZM16.9424 0C26.2991 0.000142523 33.8838 7.18385 33.8838 16.0449C33.8837 21.533 30.9732 26.3757 26.5352 29.2686C24.3998 28.369 21.522 28.3682 16.2051 28.3682C11.6566 28.3682 8.89411 28.3713 6.85352 28.9346C2.69525 26.0109 0.000125864 21.3263 0 16.0449C0 7.18376 7.58552 0 16.9424 0Z" fill="#FFF700"/>
<path d="M59.9692 28.9346C62.7876 30.9162 66.2782 32.0889 70.0581 32.0889C73.6196 32.0888 76.9233 31.0465 79.6509 29.2686C79.8426 29.3493 80.0284 29.4373 80.2095 29.5332C81.978 30.4706 83.4254 31.917 84.3628 33.6855C85.527 35.8823 85.5269 38.7799 85.5269 44.5742V72.2773L69.3208 81.9863L53.1157 72.2773V44.5742C53.1157 38.7799 53.1155 35.8823 54.2798 33.6855C55.2171 31.9171 56.6638 30.4706 58.4321 29.5332C58.9044 29.2829 59.4104 29.0888 59.9692 28.9346ZM70.0581 0C79.4148 0.000142523 86.9995 7.18385 86.9995 16.0449C86.9994 21.533 84.089 26.3757 79.6509 29.2686C77.5155 28.369 74.6377 28.3682 69.3208 28.3682C64.7723 28.3682 62.0098 28.3713 59.9692 28.9346C55.811 26.0109 53.1158 21.3263 53.1157 16.0449C53.1157 7.18376 60.7012 0 70.0581 0Z" fill="#0DCAF0"/>
<path d="M34.3271 41.9482C37.1456 43.9298 40.6361 45.1025 44.416 45.1025C47.9775 45.1025 51.2812 44.0601 54.0088 42.2822C54.2006 42.363 54.3864 42.4509 54.5674 42.5469C56.336 43.4843 57.7833 44.9306 58.7207 46.6992C59.8849 48.896 59.8848 51.7936 59.8848 57.5879V85.291L43.6787 95L27.4736 85.291V57.5879C27.4736 51.7935 27.4734 48.896 28.6377 46.6992C29.575 44.9308 31.0217 43.4843 32.79 42.5469C33.2623 42.2965 33.7683 42.1025 34.3271 41.9482ZM44.416 13.0137C53.7728 13.0138 61.3574 20.1975 61.3574 29.0586C61.3573 34.5466 58.4469 39.3893 54.0088 42.2822C51.8734 41.3827 48.9956 41.3818 43.6787 41.3818C39.1302 41.3818 36.3677 41.385 34.3271 41.9482C30.1689 39.0246 27.4738 34.34 27.4736 29.0586C27.4736 20.1974 35.0591 13.0137 44.416 13.0137Z" fill="#0074BA"/>
</svg>
